<svg width="23" height="23" viewBox="0 0 23 23" fill="none" xmlns="http://www.w3.org/2000/svg">
<path opacity="0.4" d="M15.5164 1.91675H7.48458C4.57125 1.91675 2.875 3.62258 2.875 6.5455V16.4451C2.875 19.4159 4.57125 21.0834 7.48458 21.0834H15.5164C18.4767 21.0834 20.125 19.4159 20.125 16.4451V6.5455C20.125 3.62258 18.4767 1.91675 15.5164 1.91675" fill="#9796A1"/>
<path fill-rule="evenodd" clip-rule="evenodd" d="M7.74327 6.3728V6.38239C7.33023 6.38239 6.99577 6.7178 6.99577 7.12989C6.99577 7.54197 7.33023 7.87739 7.74327 7.87739H10.6077C11.0208 7.87739 11.3562 7.54197 11.3562 7.11934C11.3562 6.70822 11.0208 6.3728 10.6077 6.3728H7.74327ZM15.2566 12.2091H7.74327C7.33023 12.2091 6.99577 11.8737 6.99577 11.4616C6.99577 11.0495 7.33023 10.7131 7.74327 10.7131H15.2566C15.6687 10.7131 16.0041 11.0495 16.0041 11.4616C16.0041 11.8737 15.6687 12.2091 15.2566 12.2091ZM15.2568 16.5886H7.74342C7.45592 16.6269 7.178 16.4832 7.02467 16.2436C6.87133 15.9944 6.87133 15.6782 7.02467 15.4386C7.178 15.1894 7.45592 15.0552 7.74342 15.084H15.2568C15.6391 15.1223 15.9276 15.4482 15.9276 15.8411C15.9276 16.2235 15.6391 16.5502 15.2568 16.5886Z" fill="#9796A1"/>
</svg>
