<svg width="23" height="25" viewBox="0 0 23 25" fill="none" xmlns="http://www.w3.org/2000/svg">
<path d="M20.278 2.54949V21.8759H3.01172V2.54949C3.01172 1.35262 3.99276 0.371582 5.18962 0.371582H18.1001C19.2969 0.371582 20.278 1.35262 20.278 2.54949Z" fill="#FFC529"/>
<path d="M8.21128 5.66906H7.44607C6.75934 5.66906 6.20996 5.11968 6.20996 4.43296V3.66775C6.20996 2.98102 6.75934 2.43164 7.44607 2.43164H8.21128C8.898 2.43164 9.44739 2.98102 9.44739 3.66775V4.43296C9.46701 5.11968 8.898 5.66906 8.21128 5.66906Z" fill="white"/>
<path d="M15.9222 5.66906H15.157C14.4703 5.66906 13.9209 5.11968 13.9209 4.43296V3.66775C13.9209 2.98102 14.4703 2.43164 15.157 2.43164H15.9222C16.6089 2.43164 17.1583 2.98102 17.1583 3.66775V4.43296C17.1583 5.11968 16.6089 5.66906 15.9222 5.66906Z" fill="white"/>
<path d="M8.21128 11.0651H7.44607C6.75934 11.0651 6.20996 10.5157 6.20996 9.82895V9.06374C6.20996 8.37702 6.75934 7.82764 7.44607 7.82764H8.21128C8.898 7.82764 9.44739 8.37702 9.44739 9.06374V9.82895C9.46701 10.5157 8.898 11.0651 8.21128 11.0651Z" fill="white"/>
<path d="M15.9222 11.0651H15.157C14.4703 11.0651 13.9209 10.5157 13.9209 9.82895V9.06374C13.9209 8.37702 14.4703 7.82764 15.157 7.82764H15.9222C16.6089 7.82764 17.1583 8.37702 17.1583 9.06374V9.82895C17.1583 10.5157 16.6089 11.0651 15.9222 11.0651Z" fill="white"/>
<path d="M8.21128 16.4801H7.44607C6.75934 16.4801 6.20996 15.9307 6.20996 15.244V14.4788C6.20996 13.7921 6.75934 13.2427 7.44607 13.2427H8.21128C8.898 13.2427 9.44739 13.7921 9.44739 14.4788V15.244C9.46701 15.9111 8.898 16.4801 8.21128 16.4801Z" fill="white"/>
<path d="M15.9222 16.4801H15.157C14.4703 16.4801 13.9209 15.9307 13.9209 15.244V14.4788C13.9209 13.7921 14.4703 13.2427 15.157 13.2427H15.9222C16.6089 13.2427 17.1583 13.7921 17.1583 14.4788V15.244C17.1583 15.9111 16.6089 16.4801 15.9222 16.4801Z" fill="white"/>
<path d="M22.5737 23.0926C22.5737 23.4261 22.4363 23.74 22.2205 23.9559C22.0047 24.1717 21.6908 24.309 21.3572 24.309H2.08962C1.4029 24.309 0.853516 23.7597 0.853516 23.0729C0.853516 22.7394 0.990861 22.4254 1.20669 22.2096C1.42252 21.9938 1.73645 21.8564 2.07 21.8564H21.3376C22.0243 21.8761 22.5737 22.4254 22.5737 23.0926Z" fill="#FFA129"/>
<path d="M13.9206 19.7962V21.8564H9.48633V19.7962C9.48633 18.5798 10.487 17.5791 11.7035 17.5791C12.92 17.5791 13.9206 18.5798 13.9206 19.7962Z" fill="#F39822"/>
</svg>
