<svg width="132" height="111" viewBox="0 0 132 111" fill="none" xmlns="http://www.w3.org/2000/svg">
<path d="M125.726 71.5173H114.176C111.346 71.5173 108.975 69.2226 108.975 66.316C108.975 64.8627 109.587 63.5624 110.505 62.6445C111.423 61.7267 112.723 61.1147 114.176 61.1147H115.859C117.312 61.1147 118.613 60.5028 119.53 59.585C120.448 58.6671 121.06 57.3668 121.06 55.9135C121.06 53.0834 118.766 50.7122 115.859 50.7122H78.3793C78.8383 49.9474 79.0677 49.106 79.0677 48.2646C79.0677 45.511 76.8495 43.2928 74.0959 43.2928H59.716V40.3097H111.27C113.488 40.3097 115.553 39.3919 117.006 37.9386C118.46 36.4853 119.377 34.4201 119.377 32.2019C119.377 27.689 115.706 24.0941 111.27 24.0941H78.6088C77.7674 21.9524 75.6257 20.3461 73.1016 20.3461H54.7442V11.1674H91.0765C92.6063 11.1674 94.0596 10.5555 95.0539 9.56113C96.0483 8.56677 96.6602 7.18997 96.6602 5.5837C96.6602 2.52414 94.1361 0 91.0765 0H16.1937C14.6639 0 13.2107 0.611913 12.2163 1.60627C11.2219 2.60063 10.61 3.97743 10.61 5.5837C10.61 8.64326 13.1342 11.1674 16.1937 11.1674H18.106C20.6301 11.1674 22.7718 13.2326 22.7718 15.8332C22.7718 17.1335 22.2364 18.2809 21.395 19.1223C20.5536 19.9636 19.4063 20.4991 18.106 20.4991H8.85078C7.24451 20.4991 5.71473 21.1875 4.64388 22.2583C3.57304 23.3292 2.88464 24.7825 2.88464 26.4652C2.88464 29.7542 5.56175 32.3549 8.77429 32.3549H18.1824C21.242 32.3549 23.7661 34.879 23.7661 37.9386C23.7661 39.4683 23.1542 40.8452 22.1599 41.8395C21.1655 42.8339 19.7887 43.4458 18.2589 43.4458H9.84514C8.46834 43.4458 7.24451 43.9812 6.32664 44.8991C5.40877 45.8169 4.87335 47.0408 4.87335 48.4176C4.87335 51.1712 7.09153 53.3894 9.84514 53.3894H16.6527C20.5536 53.3894 23.6897 56.5254 23.6897 60.4263C23.6897 62.3386 22.9248 64.1743 21.6245 65.3981C20.3241 66.6984 18.5649 67.4633 16.6527 67.4633H7.16802C5.2558 67.4633 3.49655 68.2282 2.27272 69.5285C0.97241 70.7524 0.20752 72.5116 0.20752 74.4239C0.20752 78.2483 3.34357 81.3843 7.16802 81.3843H41.5116C42.5825 82.6847 44.2652 83.526 46.1009 83.526H55.1267V92.3223H38.452C36.7693 92.3223 35.316 93.0107 34.2451 94.0815C33.1743 95.1524 32.4859 96.6822 32.4859 98.2884C32.4859 101.577 35.163 104.255 38.452 104.255H118.001C119.683 104.255 121.137 103.566 122.208 102.495C123.278 101.424 123.967 99.8947 123.967 98.2884C123.967 94.9994 121.29 92.3223 118.001 92.3223H115.629C113.182 92.3223 111.27 90.3336 111.27 87.9624C111.27 86.7386 111.729 85.6677 112.57 84.9028C113.335 84.138 114.482 83.6025 115.706 83.6025H125.726C127.409 83.6025 128.862 82.9141 129.933 81.8433C131.004 80.7724 131.692 79.2427 131.692 77.6364C131.692 74.1944 129.015 71.5173 125.726 71.5173Z" fill="#F2EAEA" fill-opacity="0.75"/>
<path d="M104.539 16.6744V99.5121C104.539 105.555 99.6435 110.526 93.5244 110.526H89.9294C87.7112 110.526 85.8755 109.303 84.3457 107.696C81.8981 105.019 80.5978 101.501 80.5978 97.8293V88.2682C80.5978 84.4437 77.4617 81.3077 73.6373 81.3077H29.3501V16.6744C29.3501 13.2324 32.1802 10.4023 35.6222 10.4023H98.2667C101.785 10.4023 104.539 13.2324 104.539 16.6744Z" fill="#FFC529"/>
<path d="M90.0055 110.526H24.0719C16.6525 110.526 10.6099 104.483 10.6099 97.0639V88.2676C10.6099 84.4432 13.7459 81.3071 17.5704 81.3071H73.7898C77.6143 81.3071 80.7503 84.4432 80.7503 88.2676V97.8288C80.7503 101.424 82.0506 105.019 84.4983 107.696C85.9516 109.302 87.7873 110.526 90.0055 110.526Z" fill="#FFA129"/>
<path d="M46.4834 45.205C49.1447 45.205 51.3022 43.0475 51.3022 40.3862C51.3022 37.7248 49.1447 35.5674 46.4834 35.5674C43.822 35.5674 41.6646 37.7248 41.6646 40.3862C41.6646 43.0475 43.822 45.205 46.4834 45.205Z" fill="white"/>
<path d="M87.9404 45.2812H62.852C60.1749 45.2812 58.0332 43.1395 58.0332 40.4624C58.0332 37.7852 60.1749 35.6436 62.852 35.6436H88.0169C90.694 35.6436 92.8357 37.7852 92.8357 40.4624C92.8357 43.063 90.6175 45.2812 87.9404 45.2812Z" fill="white"/>
<path d="M46.4834 59.891C49.1447 59.891 51.3022 57.7336 51.3022 55.0722C51.3022 52.4109 49.1447 50.2534 46.4834 50.2534C43.822 50.2534 41.6646 52.4109 41.6646 55.0722C41.6646 57.7336 43.822 59.891 46.4834 59.891Z" fill="white"/>
<path d="M87.9404 59.8905H62.852C60.1749 59.8905 58.0332 57.7489 58.0332 55.0717C58.0332 52.3946 60.1749 50.2529 62.852 50.2529H88.0169C90.694 50.2529 92.8357 52.3946 92.8357 55.0717C92.8357 57.7489 90.6175 59.8905 87.9404 59.8905Z" fill="white"/>
<path d="M46.4834 74.5771C49.1447 74.5771 51.3022 72.4196 51.3022 69.7583C51.3022 67.0969 49.1447 64.9395 46.4834 64.9395C43.822 64.9395 41.6646 67.0969 41.6646 69.7583C41.6646 72.4196 43.822 74.5771 46.4834 74.5771Z" fill="white"/>
<path d="M87.9404 74.5766H62.852C60.1749 74.5766 58.0332 72.4349 58.0332 69.7578C58.0332 67.0807 60.1749 64.939 62.852 64.939H88.0169C90.694 64.939 92.8357 67.0807 92.8357 69.7578C92.8357 72.4349 90.6175 74.5766 87.9404 74.5766Z" fill="white"/>
<path d="M90.0052 110.527H59.0271C58.7976 109.992 58.7211 109.456 58.7211 108.844C58.7211 107.468 59.2566 106.244 60.1744 105.326C61.0923 104.408 62.3161 103.873 63.6929 103.873H72.0302C73.56 103.873 74.9368 103.261 75.9312 102.266C76.9255 101.272 77.5374 99.8951 77.5374 98.3653C77.5374 95.3058 75.0133 92.7816 71.9537 92.7816H62.6221C59.333 92.7816 56.7324 90.1045 56.7324 86.892C56.7324 85.2857 57.4208 83.7559 58.4917 82.6851C59.1036 82.0732 59.7155 81.6907 60.5569 81.3848H73.866C77.6904 81.3848 80.8265 84.5208 80.8265 88.3453V97.9064C80.8265 101.578 82.0503 105.096 84.5744 107.773C85.8748 109.303 87.787 110.527 90.0052 110.527Z" fill="#F39822"/>
</svg>
