<svg width="27" height="24" viewBox="0 0 27 24" fill="none" xmlns="http://www.w3.org/2000/svg">
<path d="M26.6284 11.9829V21.2831C26.6284 22.4604 25.6669 23.4218 24.4897 23.4218H2.76952C1.59228 23.4218 0.630859 22.4604 0.630859 21.2831V11.9829C0.630859 13.0621 1.49417 13.9254 2.57332 13.9254H10.0684C10.0684 14.6121 10.6374 15.1811 11.3242 15.1811H15.8958C16.249 15.1811 16.5629 15.0437 16.7787 14.8083C17.0142 14.5729 17.1515 14.2589 17.1515 13.9254H24.6663C25.765 13.9254 26.6284 13.0424 26.6284 11.9829Z" fill="#FFC529"/>
<path d="M26.6283 5.82177V11.9631C26.6283 13.0422 25.765 13.9055 24.6858 13.9055H17.1711C17.1711 13.2188 16.6021 12.6498 15.9153 12.6498H11.3437C10.9905 12.6498 10.6766 12.7871 10.4608 13.0226C10.2253 13.258 10.088 13.572 10.088 13.9055H2.59284C1.5137 13.9055 0.650391 13.0422 0.650391 11.9631V5.82177C0.650391 4.64452 1.61181 3.68311 2.78905 3.68311H24.5092C25.6669 3.68311 26.6283 4.64452 26.6283 5.82177Z" fill="#FFA129"/>
<path d="M19.6241 2.95731V3.68328H18.0545V3.09466C18.0545 2.34907 17.4462 1.74083 16.7006 1.74083H10.5397C9.79411 1.74083 9.18587 2.34907 9.18587 3.09466V3.68328H7.61621V2.95731C7.61621 1.38765 8.89156 0.112305 10.4612 0.112305H16.7987C18.3488 0.112305 19.6241 1.38765 19.6241 2.95731Z" fill="#FFC529"/>
<path d="M17.171 13.9252C17.171 14.2783 17.0336 14.5923 16.7982 14.8081C16.5627 15.0435 16.2488 15.1809 15.9153 15.1809H11.3436C10.6569 15.1809 10.0879 14.6119 10.0879 13.9252C10.0879 13.572 10.2252 13.2581 10.4607 13.0422C10.6961 12.8068 11.0101 12.6694 11.3436 12.6694H15.9153C16.602 12.6694 17.171 13.2188 17.171 13.9252Z" fill="#FFFEFE"/>
</svg>
