<svg width="23" height="23" viewBox="0 0 23 23" fill="none" xmlns="http://www.w3.org/2000/svg">
<path opacity="0.4" d="M19.6252 13.1439C18.7183 12.6189 18.4044 11.4866 18.9168 10.5883C19.085 10.2983 19.3296 10.0572 19.6252 9.88981C20.0747 9.63843 20.4029 9.22317 20.5374 8.7357C20.672 8.24824 20.6018 7.72866 20.3424 7.29167L19.704 6.17575C19.4459 5.73802 19.0195 5.41834 18.519 5.28728C18.0185 5.15623 17.4851 5.22457 17.0364 5.47723C16.5864 5.73029 16.0516 5.79886 15.5497 5.66786C15.0478 5.53686 14.6199 5.21702 14.3601 4.77871C14.1901 4.48788 14.0997 4.15932 14.0977 3.82464C14.1001 3.31936 13.8956 2.83399 13.5296 2.4759C13.1636 2.11781 12.6662 1.9165 12.1474 1.9165H10.8617C9.78312 1.91649 8.9074 2.76562 8.90259 3.81613C8.90625 4.49745 8.535 5.1285 7.92965 5.46994C7.32429 5.81138 6.57756 5.81091 5.97266 5.46871C5.51986 5.20577 4.97705 5.13256 4.46793 5.26576C3.9588 5.39895 3.52672 5.72722 3.27013 6.17575L2.65791 7.24907C2.1228 8.15986 2.4432 9.32057 3.37508 9.84721C4.30903 10.377 4.62603 11.5434 4.08351 12.4539C3.91758 12.7434 3.67231 12.9823 3.37508 13.1439C2.92566 13.3952 2.59744 13.8105 2.46288 14.298C2.32833 14.7854 2.3985 15.305 2.65791 15.742L3.27013 16.8324C3.81409 17.742 5.01164 18.0508 5.94642 17.5224C6.88219 17.0061 8.07014 17.3172 8.61397 18.2209C8.78705 18.5105 8.87763 18.8399 8.87635 19.175C8.87633 19.684 9.08513 20.1719 9.45633 20.5303C9.82753 20.8886 10.3303 21.0876 10.853 21.0831H12.1386C13.2206 21.0831 14.0977 20.2288 14.0977 19.175C14.0907 18.6667 14.2931 18.177 14.6596 17.8152C15.0262 17.4534 15.5263 17.2497 16.0481 17.2498C16.3923 17.2477 16.7306 17.336 17.0277 17.5053C17.9628 18.0265 19.1545 17.7145 19.6952 16.8068L20.3424 15.7164C20.8649 14.8121 20.5456 13.6666 19.6252 13.1439Z" fill="#9796A1"/>
<path d="M11.4998 13.8957C12.823 13.8957 13.8957 12.823 13.8957 11.4998C13.8957 10.1767 12.823 9.104 11.4998 9.104C10.1767 9.104 9.104 10.1767 9.104 11.4998C9.104 12.823 10.1767 13.8957 11.4998 13.8957Z" fill="#9796A1"/>
</svg>
